<?xml version="1.0" encoding="UTF-8" standalone="no"?>
<!-- Created with Inkscape (http://www.inkscape.org/) -->

<svg
   width="3.1901152mm"
   height="3.1909957mm"
   viewBox="0 0 3.1901152 3.1909957"
   version="1.1"
   id="svg1"
   xmlns="http://www.w3.org/2000/svg"
   xmlns:svg="http://www.w3.org/2000/svg">
  <defs
     id="defs1" />
  <g
     id="layer2"
     transform="translate(-35.433364,-26.559069)">
    <path
       d="m 37.440163,28.72213 q -0.155029,0.131775 -0.299206,0.186035 -0.142627,0.05426 -0.306958,0.05426 -0.271301,0 -0.417029,-0.131775 -0.145727,-0.133325 -0.145727,-0.339514 0,-0.120923 0.05426,-0.220142 0.05581,-0.100769 0.144177,-0.161231 0.08992,-0.06046 0.201538,-0.09147 0.08217,-0.0217 0.248047,-0.04186 0.337964,-0.04031 0.497644,-0.09612 0.0016,-0.05736 0.0016,-0.07286 0,-0.170532 -0.07906,-0.240295 -0.10697,-0.09457 -0.31781,-0.09457 -0.196887,0 -0.291455,0.06976 -0.09302,0.06821 -0.137976,0.243396 l -0.272851,-0.03721 q 0.03721,-0.175183 0.122473,-0.282153 0.08527,-0.108521 0.246496,-0.165881 0.161231,-0.05891 0.373621,-0.05891 0.21084,0 0.342615,0.04961 0.131775,0.04961 0.193786,0.125574 0.06201,0.07441 0.08682,0.189135 0.01395,0.07131 0.01395,0.257349 v 0.37207 q 0,0.389124 0.01705,0.492993 0.0186,0.10232 0.07131,0.196888 h -0.291455 q -0.04341,-0.08682 -0.05581,-0.203089 z m -0.02325,-0.623218 q -0.151929,0.06201 -0.455786,0.10542 -0.172083,0.02481 -0.243396,0.05581 -0.07131,0.03101 -0.110071,0.09147 -0.03876,0.05891 -0.03876,0.131775 0,0.111621 0.08372,0.186035 0.08527,0.07441 0.248046,0.07441 0.161231,0 0.286805,-0.06976 0.125573,-0.07131 0.184485,-0.193786 0.04496,-0.09457 0.04496,-0.279053 z"
       id="text1"
       style="font-size:3.175px;font-family:Arial;-inkscape-font-specification:Arial;fill:#ffffff;stroke-width:0.173;stroke-linecap:round;stroke-linejoin:round;stroke-miterlimit:18.6"
       aria-label="a" />
    <path
       style="fill:#ffffff;fill-opacity:1;stroke:none;stroke-width:0.25;stroke-linecap:round;stroke-linejoin:round;stroke-miterlimit:18.6;stroke-dasharray:none;stroke-opacity:1"
       d="m 37.490196,28.917146 c 0,0 0.09923,0.2502 0.35192,0.396096 0.252701,0.145897 0.582412,-0.410613 0.582412,-0.410613 l -0.248047,-0.04754 c 0,0 -0.17491,0.34423 -0.401787,0.05301 -0.219214,-0.02923 -0.284498,0.0091 -0.284498,0.0091 z"
       id="path3" />
    <path
       id="path1"
       style="fill:none;stroke:#ffffff;stroke-width:0.23;stroke-linecap:round;stroke-linejoin:round;stroke-miterlimit:18.6;stroke-dasharray:none"
       d="m 37.686908,29.486437 c -0.201262,0.0973 -0.349287,0.148627 -0.658043,0.148627 -0.815373,0 -1.480498,-0.669258 -1.480498,-1.484631 0,-0.815373 0.660991,-1.476364 1.476364,-1.476364 0.815373,0 1.492008,0.735015 1.483671,1.435438 -0.03172,0.609803 -0.163562,0.70834 -0.337118,0.939535" />
  </g>
</svg>
