<?xml version="1.0" encoding="UTF-8" standalone="no"?>
<!-- Created with Inkscape (http://www.inkscape.org/) -->

<svg
   width="43.403034mm"
   height="43.403038mm"
   viewBox="0 0 43.403034 43.403038"
   version="1.1"
   id="svg1"
   xml:space="preserve"
   xmlns="http://www.w3.org/2000/svg"
   xmlns:svg="http://www.w3.org/2000/svg"><defs
     id="defs1" /><g
     id="layer5"
     transform="translate(-23.50916,-21.29896)"><path
       id="rect5"
       style="display:inline;fill:#ffffff;fill-opacity:1;stroke-width:0.23;stroke-linecap:round;stroke-linejoin:round;stroke-miterlimit:18.6;stroke-opacity:0.394973"
       d="m 32.355648,21.298958 c -4.900975,0 -8.846489,3.945515 -8.846489,8.846489 v 25.710058 c 0,4.900975 3.945514,8.846489 8.846489,8.846489 h 25.710058 c 4.900974,0 8.846489,-3.945514 8.846489,-8.846489 V 30.145447 c 0,-4.900974 -3.945515,-8.846489 -8.846489,-8.846489 z m 2.933154,8.665104 a 3.0757811,3.0757811 0 0 1 3.075781,3.075782 3.0757811,3.0757811 0 0 1 -3.075781,3.075781 3.0757811,3.0757811 0 0 1 -3.075781,-3.075781 3.0757811,3.0757811 0 0 1 3.075781,-3.075782 z m 16.546794,8.44548 c 0.32011,-2.54e-4 0.677268,0.01932 1.040246,0.08372 5.519649,0.979212 5.422925,6.267834 5.422925,6.267834 V 56.138175 H 52.992631 V 46.024064 c 0,-0.383377 -0.397789,-2.695958 -3.250448,-2.740918 -3.317816,-0.05229 -3.502111,3.135726 -3.502111,3.135726 l -0.02894,9.719303 c 0,0 -3.468867,5.58e-4 -5.2033,0 V 38.762492 h 4.963004 v 2.531628 c 0,0 1.81772,-2.790301 5.048271,-2.847371 0.213699,-0.0165 0.496377,-0.03695 0.816488,-0.03721 z m -19.246371,0.305924 h 5.354712 v 17.376201 h -5.354712 z" /></g></svg>
